<svg width="32" height="40" viewBox="0 0 32 40" fill="none" xmlns="http://www.w3.org/2000/svg">
<path d="M10.4307 5.16129C9.69653 3.10863 9.65336 1.97649 10.4307 0C12.0728 0.0249561 12.9851 0.298369 14.5976 1.1857C15.5976 0.853723 16.1401 0.853896 17.1401 1.1857C18.6705 0.450836 19.5561 0.0876695 21.4482 0C22.1789 1.97537 22.1061 3.10945 21.4482 5.16129C19.4548 4.87113 18.6048 4.44241 17.1401 3.62685C16.1472 3.83585 15.5905 3.85142 14.5976 3.62685C13.178 4.52771 12.2806 4.884 10.4307 5.16129Z" fill="#EAEAEA"/>
<path d="M0 7.60329C1.84678 5.16657 3.01269 3.87955 5.31718 1.72044C7.91489 14.8736 10.1464 21.958 14.7956 34.3435C14.5829 35.3374 14.4104 35.8169 14.025 36.5591C7.5682 28.3682 4.47327 23.4338 0 13.9445C1.13159 12.8227 1.74631 12.2711 2.85124 11.4233C1.49958 9.91882 0.898289 9.0836 0 7.60329Z" fill="#EAEAEA"/>
<path d="M31.3847 7.83294C29.4588 5.45722 28.2692 4.1192 25.9253 1.72044C22.9321 16.7405 20.2625 25.1153 13.8989 40C21.4174 31.6384 25.292 26.1119 31.3847 14.2511C30.2742 13.2644 29.62 12.6631 28.3781 11.5004C29.4883 10.0194 30.1339 9.20655 31.3847 7.83294Z" fill="#EAEAEA"/>
<ellipse cx="15.6752" cy="9.01588" rx="0.87969" ry="0.843892" fill="#EAEAEA"/>
<ellipse cx="15.6752" cy="15.9205" rx="0.87969" ry="0.843892" fill="#EAEAEA"/>
<ellipse cx="15.6752" cy="24.0525" rx="0.87969" ry="0.843892" fill="#EAEAEA"/>
</svg>
