<svg width="15" height="51" viewBox="0 0 15 51" fill="none" xmlns="http://www.w3.org/2000/svg">
<path d="M6.06 0.648V1.116C5.3 1.228 4.7 1.532 4.26 2.028C3.828 2.524 3.612 3.136 3.612 3.864C3.612 4.16 3.648 4.432 3.72 4.68C3.792 4.928 3.892 5.14 4.02 5.316C4.156 5.492 4.312 5.628 4.488 5.724C4.672 5.82 4.876 5.868 5.1 5.868C5.292 5.868 5.456 5.836 5.592 5.772C5.736 5.716 5.872 5.604 6 5.436C6.136 5.268 6.272 5.036 6.408 4.74C6.544 4.452 6.7 4.076 6.876 3.612C7.236 2.676 7.652 1.984 8.124 1.536C8.604 1.088 9.168 0.864 9.816 0.864C10.192 0.864 10.536 0.936 10.848 1.08C11.16 1.224 11.428 1.424 11.652 1.68C11.876 1.944 12.048 2.256 12.168 2.616C12.296 2.984 12.36 3.388 12.36 3.828C12.36 4.236 12.296 4.62 12.168 4.98C12.04 5.34 11.848 5.696 11.592 6.048L12.192 6.264V6.552L9.6 6.684V6.216C10.256 6.024 10.756 5.724 11.1 5.316C11.452 4.908 11.628 4.436 11.628 3.9C11.628 3.404 11.504 3 11.256 2.688C11.016 2.384 10.704 2.232 10.32 2.232C10.152 2.232 10 2.26 9.864 2.316C9.736 2.372 9.612 2.476 9.492 2.628C9.372 2.78 9.248 2.988 9.12 3.252C9 3.516 8.864 3.856 8.712 4.272C8.496 4.832 8.276 5.308 8.052 5.7C7.836 6.1 7.6 6.424 7.344 6.672C7.096 6.928 6.832 7.116 6.552 7.236C6.272 7.356 5.964 7.416 5.628 7.416C5.22 7.416 4.848 7.328 4.512 7.152C4.176 6.976 3.888 6.728 3.648 6.408C3.408 6.096 3.22 5.72 3.084 5.28C2.948 4.848 2.88 4.368 2.88 3.84C2.88 3.36 2.944 2.928 3.072 2.544C3.208 2.16 3.424 1.764 3.72 1.356L3 1.116V0.828L6.06 0.648ZM3.996 14.293C3.66 13.989 3.4 13.609 3.216 13.153C3.032 12.705 2.94 12.217 2.94 11.689C2.94 11.201 3.016 10.757 3.168 10.357C3.328 9.95703 3.548 9.61303 3.828 9.32503C4.108 9.03703 4.444 8.81303 4.836 8.65303C5.236 8.50103 5.676 8.42503 6.156 8.42503C6.652 8.42503 7.104 8.50903 7.512 8.67703C7.92 8.84503 8.268 9.08103 8.556 9.38503C8.852 9.68903 9.08 10.053 9.24 10.477C9.4 10.901 9.48 11.369 9.48 11.881C9.48 12.241 9.444 12.573 9.372 12.877C9.3 13.189 9.2 13.453 9.072 13.669C8.944 13.893 8.792 14.069 8.616 14.197C8.448 14.325 8.264 14.389 8.064 14.389C7.832 14.389 7.648 14.321 7.512 14.185C7.376 14.057 7.308 13.881 7.308 13.657C7.308 13.473 7.356 13.309 7.452 13.165C7.548 13.029 7.704 12.893 7.92 12.757C8.112 12.637 8.264 12.533 8.376 12.445C8.488 12.365 8.572 12.289 8.628 12.217C8.692 12.145 8.732 12.073 8.748 12.001C8.772 11.929 8.784 11.841 8.784 11.737C8.784 11.273 8.568 10.913 8.136 10.657C7.704 10.401 7.1 10.273 6.324 10.273C5.492 10.273 4.852 10.425 4.404 10.729C3.956 11.041 3.732 11.485 3.732 12.061C3.732 12.389 3.792 12.717 3.912 13.045C4.04 13.373 4.22 13.685 4.452 13.981L3.996 14.293ZM4.86 17.8265C4.548 17.8265 4.3 17.8385 4.116 17.8625C3.94 17.8945 3.804 17.9545 3.708 18.0425C3.612 18.1305 3.548 18.2585 3.516 18.4265C3.492 18.5945 3.48 18.8185 3.48 19.0985H3V15.0905H3.48C3.496 15.3305 3.52 15.5225 3.552 15.6665C3.584 15.8105 3.648 15.9185 3.744 15.9905C3.84 16.0625 3.976 16.1065 4.152 16.1225C4.336 16.1465 4.58 16.1585 4.884 16.1585L6.348 16.1585C6.844 16.1585 7.24 16.1465 7.536 16.1225C7.832 16.0985 8.06 16.0465 8.22 15.9665C8.38 15.8865 8.484 15.7705 8.532 15.6185C8.588 15.4745 8.616 15.2825 8.616 15.0425H9.036L9.48 17.4425L8.1 17.6345V17.6825C8.524 17.8985 8.86 18.1825 9.108 18.5345C9.356 18.8865 9.48 19.2585 9.48 19.6505C9.48 19.9545 9.404 20.2025 9.252 20.3945C9.1 20.5865 8.908 20.6825 8.676 20.6825C8.42 20.6825 8.204 20.6065 8.028 20.4545C7.852 20.3105 7.764 20.1105 7.764 19.8545C7.764 19.7345 7.788 19.6265 7.836 19.5305C7.884 19.4345 7.936 19.3465 7.992 19.2665C8.056 19.1945 8.112 19.1185 8.16 19.0385C8.216 18.9665 8.244 18.8905 8.244 18.8105C8.244 18.6585 8.144 18.5145 7.944 18.3785C7.744 18.2425 7.476 18.1305 7.14 18.0425C6.9 17.9785 6.628 17.9265 6.324 17.8865C6.028 17.8465 5.732 17.8265 5.436 17.8265L4.86 17.8265ZM9.48 24.5844C9.48 25.0644 9.396 25.5164 9.228 25.9404C9.068 26.3724 8.844 26.7484 8.556 27.0684C8.268 27.3964 7.924 27.6524 7.524 27.8364C7.132 28.0284 6.7 28.1244 6.228 28.1244C5.74 28.1244 5.292 28.0284 4.884 27.8364C4.476 27.6524 4.124 27.3964 3.828 27.0684C3.532 26.7484 3.3 26.3724 3.132 25.9404C2.964 25.5164 2.88 25.0644 2.88 24.5844C2.88 24.1124 2.96 23.6644 3.12 23.2404C3.288 22.8164 3.52 22.4444 3.816 22.1244C4.112 21.8044 4.464 21.5524 4.872 21.3684C5.288 21.1844 5.74 21.0924 6.228 21.0924C6.7 21.0924 7.136 21.1844 7.536 21.3684C7.936 21.5524 8.28 21.8044 8.568 22.1244C8.856 22.4444 9.08 22.8164 9.24 23.2404C9.4 23.6644 9.48 24.1124 9.48 24.5844ZM8.784 24.5844C8.784 24.3444 8.72 24.1244 8.592 23.9244C8.472 23.7244 8.3 23.5524 8.076 23.4084C7.852 23.2724 7.58 23.1644 7.26 23.0844C6.948 23.0124 6.6 22.9764 6.216 22.9764C5.816 22.9764 5.456 23.0124 5.136 23.0844C4.816 23.1644 4.544 23.2724 4.32 23.4084C4.096 23.5524 3.92 23.7204 3.792 23.9124C3.672 24.1124 3.612 24.3364 3.612 24.5844C3.612 24.8324 3.672 25.0564 3.792 25.2564C3.92 25.4644 4.096 25.6404 4.32 25.7844C4.552 25.9284 4.828 26.0404 5.148 26.1204C5.468 26.2004 5.824 26.2404 6.216 26.2404C6.6 26.2404 6.948 26.2004 7.26 26.1204C7.572 26.0404 7.84 25.9284 8.064 25.7844C8.296 25.6404 8.472 25.4644 8.592 25.2564C8.72 25.0564 8.784 24.8324 8.784 24.5844ZM4.968 31.5343C4.648 31.5343 4.392 31.5463 4.2 31.5703C4.008 31.5943 3.86 31.6423 3.756 31.7143C3.652 31.7863 3.58 31.8903 3.54 32.0263C3.508 32.1623 3.488 32.3463 3.48 32.5783H3V28.7983H3.48C3.488 29.0223 3.512 29.2023 3.552 29.3383C3.6 29.4823 3.672 29.5903 3.768 29.6623C3.872 29.7423 4.012 29.7943 4.188 29.8183C4.372 29.8503 4.604 29.8663 4.884 29.8663L9.84 29.8663C10.304 29.8663 10.684 29.8583 10.98 29.8423C11.284 29.8263 11.492 29.8063 11.604 29.7823C11.804 29.7423 11.936 29.6503 12 29.5063C12.064 29.3703 12.096 29.1183 12.096 28.7503H12.504L12.96 31.5343L4.968 31.5343ZM4.968 35.7999C4.648 35.7999 4.392 35.8119 4.2 35.8359C4.008 35.8599 3.86 35.9079 3.756 35.9799C3.652 36.0519 3.58 36.1559 3.54 36.2919C3.508 36.4279 3.488 36.6119 3.48 36.8439H3L3 33.0639H3.48C3.488 33.2879 3.512 33.4679 3.552 33.6039C3.6 33.7479 3.672 33.8559 3.768 33.9279C3.872 34.0079 4.012 34.0599 4.188 34.0839C4.372 34.1159 4.604 34.1319 4.884 34.1319H9.84C10.304 34.1319 10.684 34.1239 10.98 34.1079C11.284 34.0919 11.492 34.0719 11.604 34.0479C11.804 34.0079 11.936 33.9159 12 33.7719C12.064 33.6359 12.096 33.3839 12.096 33.0159H12.504L12.96 35.7999H4.968Z" fill="#EAEAEA"/>
<path d="M3 44.0542L4.17875 42.875L8.00167 46.7662L11.8212 42.875L13 44.0542L8.00167 49.125L3 44.0542Z" fill="#EAEAEA"/>
</svg>
