<svg width="24" height="24" viewBox="0 0 24 24" fill="none" xmlns="http://www.w3.org/2000/svg">
<path d="M18 10.031V3.608L11.964 0L6 3.569V10.068L0 13.292V20.508L6.136 24L12 20.607L17.864 24L24 20.508V13.331L18 10.031V10.031ZM16.857 10.067L12.536 12.451V7.495L16.857 4.956V10.067ZM11.962 1.357L16.234 3.953L11.966 6.462L7.79 3.908L11.962 1.357V1.357ZM11.393 7.491V12.451L7.143 10.03V4.896L11.393 7.491V7.491ZM5.563 22.333L1.142 19.794V14.618L5.563 17.213V22.333ZM1.79 13.631L6.568 11.101L10.805 13.518L6.137 16.185L1.79 13.631V13.631ZM6.707 17.218L11.429 14.521V19.577L6.707 22.334V17.218V17.218ZM17.293 22.333L12.571 19.576V14.46L17.293 17.214V22.333ZM13.219 13.472L17.466 11.082L22.235 13.676L17.868 16.185L13.219 13.472V13.472ZM22.857 19.795L18.436 22.334V17.218L22.857 14.68V19.795V19.795Z" fill="#EAEAEA"/>
</svg>
