<svg width="22" height="22" viewBox="0 0 22 22" fill="none" xmlns="http://www.w3.org/2000/svg">
<g clip-path="url(#clip0)">
<path d="M21.0719 5.91684C21.0683 5.87375 21.0655 5.8307 21.0481 5.7885C21.0435 5.7775 21.0343 5.77016 21.0288 5.75916C21.0169 5.73625 21.0032 5.71701 20.9876 5.69591C20.9564 5.65281 20.9216 5.61706 20.8794 5.58776C20.8685 5.58041 20.8639 5.56666 20.852 5.56026L11.2273 0.0604868C11.0862 -0.0201623 10.9139 -0.0201623 10.7727 0.0604868L1.1481 5.56026C1.13711 5.56761 1.13251 5.58041 1.12151 5.58776C1.07751 5.61801 1.03991 5.65466 1.00786 5.70051C0.995013 5.71885 0.982209 5.73535 0.972112 5.7555C0.96571 5.76741 0.955613 5.77566 0.950113 5.7885C0.929961 5.8389 0.923516 5.89115 0.921712 5.9425C0.921712 5.948 0.917114 5.9535 0.917114 5.959V5.96634C0.917114 5.96725 0.917114 5.96725 0.917114 5.96819V16.0355C0.917114 16.0364 0.917114 16.0383 0.917114 16.0392V16.0419C0.917114 16.0511 0.923516 16.0593 0.924462 16.0685C0.928114 16.1327 0.938211 16.1969 0.969362 16.2555C0.97121 16.2592 0.974862 16.2601 0.97671 16.2638C0.988611 16.2849 1.00971 16.2986 1.02531 16.3179C1.05921 16.36 1.0922 16.4013 1.13715 16.4297C1.14175 16.4325 1.14355 16.438 1.14725 16.4398L10.7719 21.9396C10.8433 21.9799 10.9212 22.0001 11.0001 22.0001C11.0789 22.0001 11.1568 21.9799 11.2274 21.9396L20.852 16.4398C20.8566 16.4371 20.8584 16.4316 20.863 16.4288C20.9052 16.4032 20.9345 16.3647 20.9666 16.3262C20.985 16.3042 21.0097 16.2877 21.0235 16.2629C21.0253 16.2602 21.0281 16.2583 21.0299 16.2556C21.0546 16.2079 21.0592 16.1557 21.0665 16.1043C21.0693 16.0832 21.083 16.064 21.083 16.042V5.959C21.0829 5.94434 21.0729 5.9315 21.0719 5.91684ZM19.5724 5.88565L16.2101 7.23035L12.5125 1.85157L19.5724 5.88565ZM11 1.26769L15.1707 7.33394H6.82937L11 1.26769ZM9.48486 1.85251L5.78811 7.23039L2.4268 5.88565L9.48486 1.85251ZM1.83373 6.63547L5.30409 8.02416L1.83373 14.2719V6.63547ZM5.95676 8.73913L10.1815 16.4205L2.11607 15.6523L5.95676 8.73913ZM10.5417 20.7515L3.44701 16.6982L10.5417 17.3673V20.7515ZM11 16.0071L6.73407 8.25055H15.2661L11 16.0071ZM11.4583 20.7515V17.3756L18.5494 16.7L11.4583 20.7515ZM11.8158 16.4287L16.0442 8.74188L19.884 15.6533L11.8158 16.4287ZM20.1663 14.2738L16.6941 8.02416L20.1663 6.63547V14.2738Z" fill="#EAEAEA"/>
</g>
<defs>
<clipPath id="clip0">
<rect width="22" height="22" fill="white"/>
</clipPath>
</defs>
</svg>
