<svg width="33" height="35" viewBox="0 0 33 35" fill="none" xmlns="http://www.w3.org/2000/svg">
<g clip-path="url(#clip0)">
<path d="M21.5854 26.352L16.5 21.3034L11.4147 26.352L6.33466 21.3087L1.77828 25.8866L0 23.8957L6.32399 17.5418L11.4146 22.5957L16.5 17.5471L21.5853 22.5957L26.6759 17.5418L32.9999 23.8957L31.2218 25.8866L26.6654 21.3087L21.5854 26.352ZM26.6654 12.4149L31.2218 16.9927L33 15.0018L26.676 8.64795L21.5854 13.7018L16.5 8.65316L11.4147 13.7018L6.32406 8.64795L0 15.0018L1.77822 16.9927L6.3346 12.4148L11.4146 17.4582L16.5 12.4096L21.5853 17.4582L26.6654 12.4149Z" fill="#EAEAEA"/>
</g>
<defs>
<clipPath id="clip0">
<rect width="33" height="35" fill="white"/>
</clipPath>
</defs>
</svg>
